<?xml version="1.0" encoding="UTF-8" standalone="no"?>
<!-- Generator: Adobe Illustrator 25.1.0, SVG Export Plug-In . SVG Version: 6.00 Build 0)  -->

<svg
   version="1.1"
   id="Layer_1"
   x="0px"
   y="0px"
   viewBox="0 0 4000 4000"
   style="enable-background:new 0 0 4000 4000;"
   xml:space="preserve"
   sodipodi:docname="astronaut-h-2i.svg"
   inkscape:version="1.1 (c68e22c387, 2021-05-23)"
   xmlns:inkscape="http://www.inkscape.org/namespaces/inkscape"
   xmlns:sodipodi="http://sodipodi.sourceforge.net/DTD/sodipodi-0.dtd"
   xmlns="http://www.w3.org/2000/svg"
   xmlns:svg="http://www.w3.org/2000/svg"><defs
   id="defs377" /><sodipodi:namedview
   id="namedview375"
   pagecolor="#505050"
   bordercolor="#ffffff"
   borderopacity="1"
   inkscape:pageshadow="0"
   inkscape:pageopacity="0"
   inkscape:pagecheckerboard="1"
   showgrid="false"
   inkscape:zoom="0.2105"
   inkscape:cx="2000"
   inkscape:cy="2000"
   inkscape:window-width="1920"
   inkscape:window-height="1030"
   inkscape:window-x="-8"
   inkscape:window-y="-8"
   inkscape:window-maximized="1"
   inkscape:current-layer="Layer_1" />
<style
   type="text/css"
   id="style2">
	.st0{display:none;}
	.st1{display:inline;fill:#AD82FF;}
	.st2{opacity:0.35;}
	.st3{fill:#1e1c29;}
	.st4{fill:#ffffff;}
	.st5{opacity:0.7;}
	.st6{fill:#111A28;}
	.st7{opacity:0.43;}
	.st8{fill:#22A7F0;}
	.st9{display:inline;}
	.st10{fill:#F9195A;}
	.st11{display:inline;opacity:0.5;}
	.st12{display:inline;opacity:0.3;}
	.st13{fill:#102770;}
	.st14{fill:#FCE5E5;}
</style>
<g
   id="g372">
	<g
   class="st0"
   id="g6">
		<rect
   transform="matrix(-1 -1.224647e-16 1.224647e-16 -1 4000 4000)"
   class="st1"
   width="4000"
   height="4000"
   id="rect4" />
	</g>
	<g
   id="g370">
		<g
   id="g330">
			<g
   class="st2"
   id="g10">
				<ellipse
   class="st3"
   cx="2073.21"
   cy="3408.33"
   rx="938.21"
   ry="111.94"
   id="ellipse8" />
			</g>
			<g
   id="g14">
				<path
   class="st4"
   d="M1586.02,1954.38v630.77c0,36.16,9.54,70.25,26.22,99.83c35.13,62.31,101.98,104.58,178.22,104.58h587.35      c73.44,0,138.19-39.24,174.23-97.79c19.16-31.09,30.22-67.62,30.22-106.61v-630.77c0-13.85-1.4-27.34-4.07-40.43      c-7.3-36.2-24.27-68.97-48.1-95.56c-37.48-41.91-91.92-68.41-152.27-68.41h-587.35c-87.69,0-162.97,55.92-191.83,133.87      C1590.49,1905.89,1586.02,1929.63,1586.02,1954.38z"
   id="path12" />
			</g>
			<g
   id="g18">
				<path
   class="st3"
   d="M2377.82,2804.82h-587.37c-121.13,0-219.67-98.54-219.67-219.67v-630.77      c0-121.13,98.54-219.67,219.67-219.67h587.37c121.13,0,219.67,98.54,219.67,219.67v630.77      C2597.5,2706.28,2498.95,2804.82,2377.82,2804.82z M1790.45,1765.23c-104.3,0-189.16,84.85-189.16,189.15v630.77      c0,104.3,84.85,189.15,189.16,189.15h587.37c104.3,0,189.16-84.85,189.16-189.15v-630.77c0-104.3-84.85-189.15-189.16-189.15      H1790.45z"
   id="path16" />
			</g>
			<g
   id="g22">
				<path
   class="st4"
   d="M1717.22,1809.67c0,0-254.38,289.27-254.38,530.86c0,206.77,254.38,277.9,254.38,277.9l352.56-597.1      L1717.22,1809.67z"
   id="path20" />
			</g>
			<g
   id="g26">
				<path
   class="st4"
   d="M1462.84,2340.51c0,206.81,254.38,277.91,254.38,277.91l8.7-14.7l343.87-582.39l-265.79-159.59      l-86.77-52.09C1717.22,1809.65,1462.84,2098.95,1462.84,2340.51z"
   id="path24" />
			</g>
			<g
   class="st2"
   id="g30">
				<path
   class="st3"
   d="M1569.46,2368.8c0,119.4,84.82,193.57,156.47,234.92l343.87-582.39l-265.79-159.59      C1744.12,1935.69,1569.46,2168.59,1569.46,2368.8z"
   id="path28" />
			</g>
			<g
   id="g34">
				<path
   class="st3"
   d="M1724.39,2636.28l-11.29-3.16c-2.7-0.75-66.78-18.97-131.71-63.52      c-87.54-60.06-133.82-139.27-133.82-229.07c0-244.54,247.64-528.95,258.18-540.94l8.4-9.56l376.46,226.01L1724.39,2636.28z       M1720.47,1829.42c-43.25,51.92-242.38,302.37-242.38,511.11c0,168.96,184.61,243.31,232.18,259.65l338.67-573.56      L1720.47,1829.42z"
   id="path32" />
			</g>
			<g
   id="g38">
				<path
   class="st4"
   d="M2475.16,2160.29c0,0,107.78,134.98,280.42,105.18c179.03-30.89,147.33-328.85,147.33-328.85      l-272.01-104.73c0,0,16.9,93.07-22.5,93.05c-44.11-0.02-122.86-103.83-191.65-134.98L2475.16,2160.29z"
   id="path36" />
			</g>
			<g
   class="st2"
   id="g42">
				<path
   class="st3"
   d="M2435.01,1905.77l40.15,254.54c0,0,107.77,134.95,280.44,105.18c179.02-30.89,147.33-328.86,147.33-328.86      l-125.12,67.13c84.44,15.07,73.83,168.65-54.26,190.76c-172.63,29.82-276.05-242.4-276.05-242.4L2435.01,1905.77z"
   id="path40" />
			</g>
			<g
   id="g46">
				<path
   class="st3"
   d="M2705.41,2285.1c-148.23,0-238.01-110.08-242.17-115.29c-5.26-6.58-4.18-16.19,2.4-21.45      c6.58-5.25,16.17-4.19,21.43,2.39l0,0c1.03,1.28,104.54,127.52,265.92,99.69c146.03-25.2,138.75-254.03,135.48-303.02      l-239.27-92.13c1.74,23.21,0.94,54.99-13.36,72.11c-7,8.38-16.48,12.81-27.43,12.81c0,0-0.01,0-0.01,0      c-29.34-0.01-63.75-30.49-103.6-65.77c-31.65-28.02-64.38-57-94.34-70.57c-7.68-3.48-11.08-12.52-7.61-20.19      c3.48-7.68,12.53-11.08,20.2-7.6c34.16,15.47,68.64,46,101.98,75.52c30.75,27.23,65.61,58.09,83.38,58.1c0,0,0,0,0,0      c1.86,0,2.83-0.45,4-1.85c9.36-11.19,7.6-50.31,3.47-73.23l-4.81-26.69l306.03,117.82l0.99,9.27      c1.36,12.75,31.02,312.55-159.91,345.5C2739.86,2283.67,2722.25,2285.1,2705.41,2285.1z"
   id="path44" />
			</g>
			<g
   class="st2"
   id="g50">
				<path
   class="st3"
   d="M2281.41,2940.9c-1.68,0.75-3.35,1.46-5.03,2.18v0.04C2278.06,2942.4,2279.73,2941.65,2281.41,2940.9z"
   id="path48" />
			</g>
			<g
   class="st2"
   id="g54">
				<path
   class="st3"
   d="M2069.78,2473.6c-4.27,6.55-8.42,12.97-12.41,19.28C2061.4,2486.57,2065.55,2480.11,2069.78,2473.6z"
   id="path52" />
			</g>
			<g
   id="g58">
				<path
   class="st4"
   d="M1545.07,3295.92c0.24,2.59,0.6,5.19,1.08,7.66c12.93,76.6,102.66,103.98,264.16,82.82      c73.12-9.5,174.23-20.8,200.89-79.03c53.25-116.23-1.08-351.41,5.23-502.13v-0.24c0,0,29.38,3.59,65.82,3.59      c36.48,0,65.86-3.59,65.86-3.59c0.04,1.24,0.08,2.43,0.12,3.67c5.39,150.8-47.7,383.34,5.11,498.7      c26.66,58.24,127.73,69.53,200.89,79.03c161.7,21.15,251.42-6.27,264.24-83.06c0.4-2.47,0.76-4.91,1.04-7.42      c9.3-93.6-121.26-137.07-121.26-137.07s28.46-198.62,47.26-377.83c7.9-75.36,9.7-153.31,7.22-230.87      c-0.6-20.08-1.52-40.15-2.67-60.15c-1.68-28.46-3.83-56.72-6.43-84.7c-2.28-24.27-4.83-48.26-7.7-71.93      c-10.62-88.97-24.91-173.15-39.64-247.19c-13.17-66.42-26.7-124.73-38.32-171.03c-2.59-10.22-5.03-19.84-7.38-28.86      c-14.17-54.56-23.99-86.34-23.99-86.34h-688.65c0,0-9.9,32.01-24.11,86.85c-8.38,32.13-18.24,72.17-28.5,118.23      c-3.99,18-8.06,36.92-12.13,56.68c-16.48,79.95-32.81,173.15-44.62,272.34c-2.75,23.15-5.27,46.62-7.5,70.33      c-2.71,28.98-4.95,58.32-6.63,87.81c-1.24,20.92-2.16,41.91-2.75,62.95c-0.4,13.93-0.68,27.86-0.8,41.83      c-0.56,61.99,1.88,123.9,8.18,184.05c18.76,179.22,47.22,377.83,47.22,377.83S1535.77,3202.32,1545.07,3295.92z"
   id="path56" />
			</g>
			<g
   class="st2"
   id="g62">
				<path
   class="st3"
   d="M2153.33,3307.38c26.67,58.23,127.74,69.53,200.88,79.08c161.71,21.08,251.43-6.3,264.23-83.13      c-132.37,52.6-365.73,22.56-405.63-44.18c-51.67-86.42-60.05-172.79,20.32-280.46c80.32-107.63,86.55-248.17,86.55-248.17      c-38.4,28.28-117.38,58.99-171.46,78.18C2153.63,2959.5,2100.5,3192,2153.33,3307.38z"
   id="path60" />
			</g>
			<g
   class="st2"
   id="g66">
				<path
   class="st3"
   d="M1546.13,3303.59c12.93,76.6,102.65,103.93,264.15,82.86c73.15-9.55,174.25-20.85,200.92-79.08      c53.22-116.23-1.12-351.43,5.2-502.11c-44.75-14.01-127.61-42.65-171.24-74.75c0,0-21.99,101.05,71.6,239.17      c75.51,111.46,81.01,200.12,29.34,286.5C1909.45,3317.46,1691.65,3342.64,1546.13,3303.59z"
   id="path64" />
			</g>
			<g
   id="g70">
				<path
   class="st3"
   d="M2462.85,1913.9c16.66,49.83,30.3,100.56,42.42,151.65c5.99,25.56,11.65,51.21,16.66,76.99      c2.49,12.89,5.09,25.77,7.42,38.7l6.55,38.86c2.26,12.94,4.25,25.93,6.15,38.94l5.78,39.01c1.74,13.03,3.35,26.08,4.9,39.14      c1.69,13.04,2.98,26.13,4.26,39.22c5.81,52.29,8.74,104.9,10.97,157.52c1.18,52.67,2.09,105.4-0.89,158.14l-0.92,19.77      l-0.46,9.89l-0.82,9.87l-3.29,39.5c-2.26,26.3-5.43,52.18-8.27,78.26c-11.94,104.11-25.38,207.89-39.99,311.67l-10.28-16.64      c7.09,2.47,13.05,4.97,19.37,7.78c6.21,2.78,12.31,5.77,18.33,8.94c12,6.41,23.67,13.61,34.73,21.95      c11.09,8.26,21.5,17.83,30.77,28.76c9.25,10.93,17.04,23.65,22.3,37.67c5.25,14.03,7.3,29.44,6.3,44.33      c-0.88,14.67-4.55,29.33-11.26,43.03c-6.84,13.57-16.83,25.71-28.58,34.79c-11.67,9.28-24.68,15.99-37.88,20.91      c-26.5,9.86-53.65,13.59-80.34,15.27c-26.74,1.49-53.24,0.61-79.49-1.44c-13.11-1.13-26.2-2.37-39.19-4.06l-38.62-5.05      c-25.83-3.6-51.92-7.81-77.93-14.76c-13-3.46-25.98-7.75-38.75-13.23c-12.74-5.57-25.34-12.49-36.85-21.89      c-5.7-4.77-11.09-10.15-15.85-16.22c-4.75-5.91-8.83-13.23-11.67-19.86c-5.84-12.85-9.66-26.11-12.98-39.34      c-6.31-26.54-9.01-53.18-10.21-79.58c-1.24-26.43-0.86-52.67,0.2-78.75c2.14-52.18,7-103.79,11.19-155.15      c4.09-51.29,8.1-102.58,6.23-152.82l17.11,14.5c-11.61,1.33-22.6,2.15-33.91,2.78c-11.24,0.61-22.5,0.93-33.8,0.94      c-11.3-0.02-22.56-0.33-33.8-0.94c-11.31-0.63-22.3-1.45-33.91-2.78l17.11-14.5c-1.87,50.24,2.14,101.53,6.23,152.82      c4.19,51.35,9.05,102.97,11.19,155.15c1.06,26.09,1.44,52.33,0.2,78.75c-1.2,26.4-3.9,53.04-10.22,79.58      c-3.32,13.23-7.14,26.49-12.97,39.34c-2.83,6.62-6.92,13.95-11.67,19.86c-4.76,6.07-10.15,11.45-15.85,16.22      c-11.51,9.4-24.11,16.32-36.85,21.89c-12.78,5.48-25.75,9.77-38.75,13.23c-26.01,6.95-52.1,11.15-77.93,14.76l-38.62,5.05      c-12.99,1.69-26.08,2.93-39.19,4.06c-26.25,2.04-52.75,2.92-79.49,1.44c-26.7-1.68-53.85-5.41-80.35-15.27      c-13.2-4.92-26.21-11.63-37.88-20.91c-11.75-9.09-21.74-21.23-28.58-34.79c-6.71-13.7-10.39-28.36-11.26-43.03      c-1-14.89,1.05-30.3,6.3-44.33c5.26-14.02,13.05-26.75,22.3-37.67c9.27-10.93,19.68-20.5,30.77-28.76      c11.06-8.34,22.73-15.54,34.73-21.95c6.02-3.17,12.12-6.16,18.33-8.94c6.32-2.81,12.28-5.3,19.37-7.78l-10.29,16.64      c-14.72-104.59-28.26-209.18-40.26-314.12c-2.87-26.3-6.04-52.35-8.33-78.91c-1.07-13.27-2.56-26.52-3.27-39.81l-2.25-39.85      c-2.08-53.15-1.79-106.31,0.32-159.34c2.02-53.04,6.23-105.93,11.73-158.64c1.21-13.2,2.75-26.35,4.28-39.51      c1.46-13.17,3.06-26.32,4.77-39.45c3.26-26.29,6.83-52.54,10.93-78.71c8.07-52.45,17.89-104.19,30.19-156.18      c3.22-12.89,6.63-25.67,10.3-38.41c3.55-12.76,7.39-25.45,11.4-38.1c8.11-25.26,16.77-50.43,27.86-74.81      c1.17-2.57,4.2-3.71,6.77-2.54c2.21,1.01,3.36,3.4,2.89,5.68l-0.01,0.07c-10.57,51.41-20.29,103.1-30.51,154.52      c-9.17,51.22-18.31,103.21-26.78,154.86c-17.22,103.44-29.32,207.83-33.33,312.46c-2.08,52.29-2.36,104.62-0.32,156.81      c2.16,52.16,7.72,103.95,13.68,156.4c11.95,104.53,25.48,209.05,40.14,313.23l1.75,12.45l-12.04,4.19      c-5.1,1.78-11.08,4.23-16.55,6.68c-5.57,2.5-11.07,5.19-16.47,8.03c-10.77,5.75-21.14,12.16-30.69,19.38      c-19.11,14.31-35.24,32.14-42.78,52.58c-3.79,10.18-5.18,20.93-4.49,31.77c0.63,11.1,3.48,21.94,8.12,31.43      c9.42,19.05,27.91,32.74,49.94,40.79c21.99,8.23,46.58,11.84,71.32,13.35c24.84,1.38,50.08,0.58,75.3-1.39      c12.62-1.09,25.24-2.29,37.86-3.93l38.19-4.99c25.29-3.52,50.3-7.6,74.2-14c23.71-6.43,46.98-15.17,64.1-29.19      c4.19-3.52,7.96-7.32,11.18-11.41l2.3-3.12l2.02-3.25c0.74-1.05,1.19-2.24,1.8-3.35l0.88-1.69l0.84-2.04      c4.89-10.68,8.25-22.35,11.22-34.13c5.67-23.74,8.28-48.7,9.41-73.86c1.19-25.17,0.83-50.62-0.21-76.13      c-2.08-51.04-6.9-102.3-11.11-153.89c-4.09-51.6-8.25-103.54-6.31-156.6l0.6-16.38l16.51,1.88c10.24,1.17,21.19,2.01,31.84,2.6      c10.72,0.59,21.45,0.88,32.14,0.9c10.69-0.02,21.42-0.31,32.14-0.9c10.65-0.58,21.6-1.43,31.84-2.6l16.51-1.88l0.6,16.38      c1.95,53.06-2.21,105-6.31,156.6c-4.21,51.58-9.02,102.85-11.11,153.89c-1.04,25.51-1.39,50.96-0.21,76.13      c1.13,25.16,3.74,50.12,9.41,73.86c2.96,11.78,6.32,23.45,11.21,34.13l0.85,2.04l0.88,1.69c0.61,1.11,1.06,2.3,1.8,3.35      l2.02,3.25l2.3,3.12c3.22,4.08,6.99,7.88,11.18,11.41c17.12,14.02,40.39,22.77,64.1,29.19c23.91,6.4,48.91,10.48,74.2,14      l38.19,4.99c12.61,1.64,25.24,2.83,37.86,3.93c25.22,1.97,50.46,2.77,75.3,1.39c24.74-1.52,49.33-5.12,71.32-13.35      c22.03-8.05,40.52-21.74,49.94-40.79c4.64-9.49,7.49-20.33,8.12-31.43c0.69-10.84-0.7-21.59-4.49-31.77      c-7.54-20.44-23.67-38.27-42.78-52.58c-9.56-7.22-19.92-13.63-30.69-19.38c-5.4-2.85-10.9-5.54-16.47-8.03      c-5.47-2.45-11.45-4.9-16.55-6.68l-12.04-4.19l1.75-12.45c14.55-103.37,27.98-207.07,39.87-310.79      c2.82-25.9,6.01-51.95,8.22-77.75l3.22-38.68l0.81-9.67l0.4-9.71l0.8-19.41c2.59-51.74,1.67-103.69-0.12-155.54      c-5.03-103.74-16.17-207.22-31.35-310.19c-15.45-102.96-34.13-205.42-51.98-308.58c-0.48-2.78,1.38-5.42,4.16-5.9      C2459.66,1910.04,2462.07,1911.54,2462.85,1913.9z"
   id="path68" />
			</g>
			<g
   id="g74">
				<path
   class="st3"
   d="M1800.59,3045.68c-125.08,0-168.1-54.47-170.62-57.81c-5.06-6.74-3.71-16.3,3.03-21.36      c6.69-5.04,16.19-3.73,21.27,2.9c1.33,1.66,83.25,98.97,361.21,3.91c8-2.72,16.65,1.53,19.38,9.5s-1.53,16.65-9.5,19.38      C1930.96,3034.47,1857.33,3045.68,1800.59,3045.68z"
   id="path72" />
			</g>
			<g
   id="g78">
				<path
   class="st3"
   d="M2376.43,3052.82c-111.96,0-231.95-39.51-239.58-42.06c-7.99-2.67-12.3-11.32-9.62-19.31      c2.67-7.99,11.35-12.3,19.31-9.63c2.7,0.9,270.41,89.04,363.21,3.26c6.19-5.72,15.84-5.34,21.56,0.85      c5.72,6.19,5.34,15.84-0.85,21.56C2493.58,3041.58,2436.15,3052.82,2376.43,3052.82z"
   id="path76" />
			</g>
			<g
   id="g154">
				<g
   id="g84">
					<path
   class="st4"
   d="M1507.33,1625.11L1507.33,1625.11c6.45-0.89,10.95-6.83,10.07-13.27l-46.16-336.15       c-0.89-6.45-6.83-10.95-13.27-10.07h0c-67.62,9.29-114.9,71.63-105.62,139.24l15.74,114.63       C1377.37,1587.11,1439.72,1634.4,1507.33,1625.11z"
   id="path80" />
					<path
   class="st3"
   d="M1490.26,1629.03c-27.38,0-53.89-8.87-76.08-25.7c-26.88-20.39-44.21-50.03-48.8-83.46l-15.74-114.63       c-4.59-33.43,4.11-66.64,24.5-93.53c20.39-26.88,50.03-44.22,83.46-48.81c3.8-0.53,7.65,0.47,10.75,2.81       c3.09,2.35,5.08,5.75,5.61,9.59l46.16,336.15c1.09,7.93-4.48,15.27-12.41,16.36l0,0       C1501.88,1628.63,1496.04,1629.03,1490.26,1629.03z M1459.59,1268.25c-0.42,0-0.83,0.03-1.25,0.09       c-31.98,4.39-60.33,20.97-79.83,46.69c-19.51,25.72-27.83,57.49-23.44,89.47l15.74,114.63c4.39,31.98,20.97,60.33,46.69,79.84       c25.72,19.5,57.49,27.82,89.47,23.44c4.94-0.68,8.4-5.25,7.72-10.19l-46.16-336.15c-0.33-2.39-1.57-4.51-3.49-5.97       C1463.45,1268.89,1461.55,1268.25,1459.59,1268.25z"
   id="path82" />
				</g>
				<g
   class="st2"
   id="g88">
					<path
   class="st3"
   d="M1360.71,1465.74l7.37,53.76c9.29,67.59,71.63,114.89,139.26,105.63c6.44-0.88,10.94-6.85,10.07-13.3       l-12.24-89.37c-1.25,4.32-4.94,7.7-9.67,8.38l-7.97,1.07C1434.09,1539.28,1383.92,1511.27,1360.71,1465.74z"
   id="path86" />
				</g>
				<g
   id="g92">
					<path
   class="st3"
   d="M1490.23,1641.55c-30.1,0-59.22-9.75-83.62-28.25c-29.55-22.41-48.6-54.99-53.64-91.73l-15.74-114.63       c-5.04-36.74,4.52-73.24,26.93-102.79c22.42-29.55,54.99-48.6,91.73-53.64c7.14-0.99,14.26,0.88,20.02,5.25       c5.75,4.37,9.46,10.71,10.44,17.87l46.16,336.15c2.03,14.77-8.34,28.44-23.11,30.47h0       C1503,1641.11,1496.59,1641.55,1490.23,1641.55z M1456.6,1281.27c-27.26,4.62-51.34,19.2-68.12,41.32       c-17.49,23.05-24.95,51.54-21.01,80.2l15.74,114.63c3.94,28.66,18.8,54.08,41.85,71.57c22.12,16.78,49.23,24.32,76.75,21.43       L1456.6,1281.27z"
   id="path90" />
				</g>
				<g
   id="g98">
					<path
   class="st4"
   d="M2567.53,1113.26L2567.53,1113.26c-6.45,0.89-10.95,6.83-10.07,13.27l46.16,336.15       c0.89,6.45,6.83,10.95,13.27,10.07l0,0c67.62-9.29,114.9-71.63,105.62-139.24l-15.74-114.63       C2697.48,1151.26,2635.14,1103.97,2567.53,1113.26z"
   id="path94" />
					<path
   class="st3"
   d="M2615.26,1475.6c-3.15,0-6.2-1.02-8.75-2.96c-3.09-2.34-5.08-5.75-5.61-9.59l-46.16-336.15       c-1.09-7.93,4.48-15.27,12.41-16.36l0,0c33.42-4.59,66.65,4.11,93.53,24.5c26.88,20.39,44.21,50.03,48.8,83.46l15.74,114.63       c4.59,33.43-4.11,66.64-24.5,93.53c-20.39,26.88-50.03,44.22-83.46,48.81C2616.59,1475.56,2615.92,1475.6,2615.26,1475.6z        M2567.9,1115.97c-4.94,0.68-8.4,5.25-7.72,10.18l46.16,336.15c0.33,2.39,1.57,4.51,3.49,5.97c1.92,1.46,4.3,2.08,6.69,1.76       c31.98-4.39,60.33-20.97,79.83-46.69c19.51-25.72,27.83-57.49,23.44-89.47l-15.74-114.63c-4.39-31.98-20.97-60.33-46.69-79.84       C2631.65,1119.91,2599.89,1111.6,2567.9,1115.97L2567.9,1115.97z"
   id="path96" />
				</g>
				<g
   class="st2"
   id="g102">
					<path
   class="st3"
   d="M2590.79,1369.43l12.82,93.25c0.88,6.44,6.85,10.94,13.3,10.07c35.49-4.89,65.41-24.38,84.46-51.6       c17.21-24.59,25.54-55.51,21.14-87.62l-6.63-48.3c-13.37,45.01-52.09,80.41-101.66,87.22l-12.27,1.68       C2597.46,1374.74,2593.32,1372.79,2590.79,1369.43z"
   id="path100" />
				</g>
				<g
   id="g106">
					<path
   class="st3"
   d="M2615.27,1488.12c-13.3,0-24.92-9.84-26.77-23.37l-46.16-336.15c-2.03-14.77,8.34-28.43,23.11-30.46h0       c36.72-5.05,73.24,4.52,102.79,26.93c29.55,22.41,48.6,54.99,53.64,91.73l15.74,114.63c5.04,36.74-4.52,73.24-26.93,102.79       c-22.42,29.55-54.99,48.6-91.73,53.64C2617.72,1488.04,2616.49,1488.12,2615.27,1488.12z M2573.05,1127.95l45.21,329.15       c27.25-4.62,51.34-19.2,68.12-41.32c17.49-23.05,24.95-51.54,21.01-80.2l-15.74-114.63c-3.94-28.66-18.8-54.08-41.85-71.57       C2627.68,1132.6,2600.56,1125.05,2573.05,1127.95z"
   id="path104" />
				</g>
				<g
   class="st2"
   id="g110">
					<path
   class="st3"
   d="M1598.63,1883.85c10.22,10.7,20.76,21,31.69,30.85c20.24,18.32,41.67,35.25,64.1,50.61       c96.51,66.26,211.99,104.62,333.17,106.41c44.31,0.72,89.37-3.51,134.55-13.01c105.89-22.27,199.49-70.97,275.29-137.71       c6.07-5.35,12.01-10.82,17.84-16.41c17.12-16.29,33.21-33.57,48.22-51.69c9.34-11.18,18.2-22.71,26.58-34.53       c-37.48-41.91-91.92-68.41-152.27-68.41h-587.35C1702.77,1749.98,1627.49,1805.9,1598.63,1883.85z"
   id="path108" />
				</g>
				<g
   id="g116">
					<circle
   class="st4"
   cx="2037.36"
   cy="1369.2"
   r="578.21"
   id="circle112" />
					<path
   class="st3"
   d="M2036.19,1950.33c-111.47,0-220.64-32.22-316.2-94.55c-129.97-84.77-219.16-215.09-251.11-366.94       c-31.96-151.85-2.88-307.06,81.89-437.03c84.78-129.98,215.09-219.16,366.94-251.12c313.46-65.98,622.16,135.37,688.15,448.83       c65.98,313.47-135.37,622.17-448.83,688.15C2116.81,1946.15,2076.34,1950.33,2036.19,1950.33z M2037.5,793.66       c-39.15,0-78.87,4.03-118.67,12.4c-150.42,31.66-279.5,120-363.48,248.75c-83.97,128.75-112.78,282.49-81.12,432.91       c31.66,150.42,120,279.5,248.75,363.47c128.75,83.98,282.5,112.78,432.91,81.12c310.51-65.36,509.95-371.15,444.6-681.66       C2543.51,979.96,2303.77,793.66,2037.5,793.66z"
   id="path114" />
				</g>
				<g
   class="st2"
   id="g120">
					<path
   class="st3"
   d="M1460.49,1408.82c1.78,26.34,5.46,52.87,11.05,79.47c65.81,312.47,372.44,512.47,684.92,446.72       c312.47-65.81,512.47-372.44,446.72-684.92c-1.89-8.99-3.99-17.94-6.28-26.7c19.83,283.46-171.87,545.26-457.78,605.45       C1835.63,1892.7,1537.71,1705.9,1460.49,1408.82z"
   id="path118" />
				</g>
				<g
   id="g124">
					<path
   class="st3"
   d="M2036.16,1962.86c-113.87,0-225.4-32.92-323.01-96.58c-132.77-86.6-223.88-219.72-256.53-374.84l0,0       c-32.65-155.12-2.94-313.67,83.66-446.45c86.6-132.78,219.72-223.88,374.84-256.53c320.2-67.4,635.57,138.28,702.98,458.5       c67.4,320.22-138.29,635.57-458.5,702.98C2118.52,1958.58,2077.18,1962.85,2036.16,1962.86z M2037.5,806.18       c-38.3,0-77.15,3.94-116.08,12.13c-147.15,30.97-273.42,117.39-355.57,243.34c-82.14,125.95-110.33,276.35-79.36,423.49l0,0       c30.97,147.14,117.39,273.42,243.33,355.57c125.95,82.14,276.36,110.32,423.49,79.36c303.75-63.94,498.86-363.07,434.93-666.83       C2532.5,988.43,2297.98,806.18,2037.5,806.18z"
   id="path122" />
				</g>
				<g
   id="g128">
					<path
   class="st3"
   d="M1476.42,1502.44c21.63,111.06,77.76,207.15,156.03,280.45c58.68,54.95,270.5,129.88,505.55,86.29       c217.94-40.42,393.3-194.96,427.07-267.92c45.04-97.32,61.01-207.45,39.38-318.51c-57.24-293.9-333.47-366.56-644.98-305.89       S1419.18,1208.54,1476.42,1502.44z"
   id="path126"
   style="fill:#2c2b38;fill-opacity:1" />
				</g>
				<g
   id="g132">
					<path
   class="st3"
   d="M1992.69,1897.77c-181.73,0-324.67-60.67-370.66-103.75c-83.5-78.2-139.03-178.02-160.58-288.67       c-28.1-144.25,8.09-266.74,107.54-364.07c86.73-84.88,220.75-146.91,387.56-179.4c166.81-32.49,314.31-25.28,426.56,20.84       c128.72,52.89,208.22,152.85,236.31,297.1c21.55,110.64,7.54,224.01-40.51,327.83c-35.48,76.66-212.24,234.63-438.13,276.52       C2089.49,1893.69,2039.79,1897.77,1992.69,1897.77z M1491.4,1499.52c20.32,104.31,72.7,198.44,151.48,272.23       c52.31,48.98,256.77,126.12,492.34,82.43c212.56-39.42,383.81-189.78,416-259.33c45.34-97.96,58.56-204.88,38.25-309.18       c-26.01-133.54-99.34-225.97-217.96-274.71c-106.72-43.86-248.19-50.47-409.13-19.12c-160.94,31.34-289.59,90.56-372.05,171.25       C1498.68,1252.79,1465.39,1365.98,1491.4,1499.52z"
   id="path130" />
				</g>
				<g
   class="st5"
   id="g136">
					
						<ellipse
   transform="matrix(0.9317 -0.3631 0.3631 0.9317 -405.3402 697.2294)"
   class="st4"
   cx="1651.95"
   cy="1426.81"
   rx="74.15"
   ry="102.32"
   id="ellipse134" />
				</g>
				<g
   class="st5"
   id="g140">
					
						<ellipse
   transform="matrix(0.8726 -0.4884 0.4884 0.8726 -558.8112 1074.0872)"
   class="st4"
   cx="1779.85"
   cy="1608.41"
   rx="40.3"
   ry="46.97"
   id="ellipse138" />
				</g>
				<g
   class="st2"
   id="g144">
					<path
   class="st6"
   d="M1532.72,1206.9c-56.14,79.22-79.27,177.48-56.3,295.52c21.63,111.08,77.79,207.16,156.01,280.47       c58.69,54.95,270.53,129.87,505.58,86.3c83-15.37,159.79-47.31,224.97-85.03c-290.07,47.39-548.3-44.91-621.07-113.07       c-99.35-93.03-170.59-215-198.01-355.93C1536.54,1277.51,1532.96,1241.42,1532.72,1206.9z"
   id="path142" />
				</g>
				<g
   id="g148">
					<path
   class="st3"
   d="M1474.72,1250.53c-3.41,0-6.85-1.14-9.69-3.48c-5.7-4.69-7.12-12.66-3.78-18.94       c73.77-161.23,251.2-279.99,486.97-325.91c237.66-46.28,447.45,0.12,575.6,127.31l-10.66,10.9l-9.62,11.84l9.62-11.84       l-9.63,11.84l-1.2-1.07c-120.86-119.95-320.68-163.35-548.27-119.02c-226.32,44.08-395.94,156.83-465.37,309.35l-0.68,1.51       l-1.49,1.95C1483.49,1248.63,1479.13,1250.53,1474.72,1250.53z"
   id="path146" />
				</g>
				<g
   class="st5"
   id="g152">
					<path
   class="st4"
   d="M2511.83,1482.25c0,0,34.56-307.66-144.2-392.76c-178.75-85.1-403.47-40.86-395.4-27.46       c0,0,260.61,11.78,396.3,189.56C2473.18,1388.69,2511.83,1482.25,2511.83,1482.25z"
   id="path150" />
				</g>
			</g>
			<g
   id="g158">
				<path
   class="st3"
   d="M2145.54,2789.97l21.48-5.52c7.28-2.05,14.62-3.95,21.89-6.16c14.61-4.18,29.13-8.85,43.52-13.98      c14.48-4.97,28.61-10.83,43.04-16.46c14.56-5.5,28.7-11.91,44.18-17.31c-10.2,12.65-22.14,23.81-35.18,33.34      c-6.4,5-13.25,9.25-20.11,13.56c-7.02,3.96-14.04,8.03-21.28,11.62c-14.41,7.37-29.35,13.71-44.68,19.02      c-15.5,5.21-30.72,9.55-47.75,11.98c-8.34,1.19-16.06-4.61-17.25-12.95c-1.11-7.75,3.83-14.97,11.23-16.91L2145.54,2789.97z"
   id="path156" />
			</g>
			<g
   id="g162">
				<path
   class="st3"
   d="M2014.18,2820.06c-17.04-2.43-32.25-6.78-47.75-11.98c-15.32-5.31-30.26-11.65-44.68-19.02      c-7.24-3.6-14.26-7.66-21.28-11.62c-6.86-4.31-13.71-8.57-20.11-13.56c-13.04-9.52-24.98-20.68-35.19-33.34      c15.48,5.4,29.62,11.81,44.18,17.31c14.43,5.63,28.57,11.49,43.04,16.46c14.39,5.12,28.91,9.79,43.52,13.98      c7.27,2.21,14.61,4.11,21.89,6.16l21.48,5.52l0.84,0.21c8.16,2.1,13.07,10.41,10.97,18.57      C2029.15,2816.34,2021.75,2821.11,2014.18,2820.06z"
   id="path160" />
			</g>
			<g
   id="g166">
				<path
   class="st3"
   d="M2495.49,3173.85c-8.88-1.07-18.72-2.08-28.17-2.89c-9.55-0.78-19.12-1.56-28.7-1.94      c-19.16-1-38.34-1.12-57.49-0.34c-19.14,0.97-38.04,3.44-57.06,6.52c-18.93,3.55-37.45,8.67-56.79,15.11      c14.6-14.08,32.6-24.77,51.6-32.74c19.13-7.62,39.26-12.41,59.51-15.69c20.29-2.96,40.76-4.29,61.19-4.1      c10.21,0.2,20.42,0.57,30.6,1.62c10.28,0.9,20.11,2.26,30.77,4.44c8.25,1.69,13.58,9.75,11.89,18      c-1.6,7.83-8.93,13.02-16.72,12.1L2495.49,3173.85z"
   id="path164" />
			</g>
			<g
   id="g170">
				<path
   class="st3"
   d="M1663.5,3143.83c10.65-2.18,20.49-3.54,30.77-4.44c10.18-1.05,20.39-1.42,30.6-1.62      c20.43-0.19,40.91,1.14,61.19,4.1c20.25,3.29,40.38,8.08,59.51,15.69c19,7.97,37,18.65,51.6,32.74      c-19.34-6.43-37.86-11.56-56.79-15.11c-19.02-3.08-37.92-5.55-57.06-6.52c-19.15-0.78-38.33-0.66-57.49,0.34      c-9.58,0.38-19.16,1.16-28.7,1.94c-9.45,0.81-19.29,1.82-28.17,2.89l-0.57,0.07c-8.37,1.01-15.97-4.95-16.98-13.32      C1650.45,3152.68,1655.82,3145.42,1663.5,3143.83z"
   id="path168" />
			</g>
			<g
   class="st2"
   id="g174">
				<path
   class="st3"
   d="M2311.98,2735.66c0,0-121.57,20.5-215.45,20.5c-93.89,0-244.16-20.5-244.16-20.5s90.22,72.48,234.07,69.36      C2233.88,2801.81,2311.98,2735.66,2311.98,2735.66z"
   id="path172" />
			</g>
			<g
   class="st2"
   id="g178">
				<path
   class="st3"
   d="M1614.44,2492.19c20.04,1.36,41.03,2.16,62.07,1.96c2.87,0,5.67-0.04,8.54-0.12      c2.99-0.04,5.99-0.12,8.98-0.28c2.04-0.04,4.03-0.12,5.99-0.2c2.35-0.12,4.71-0.24,7.06-0.4c2.95-0.16,5.95-0.36,8.9-0.6h0.2      c2.95-0.2,5.95-0.48,8.9-0.76c1.92-0.2,3.87-0.4,5.79-0.64c1.64-0.12,3.27-0.32,4.87-0.52c2.55-0.28,5.11-0.64,7.58-1      c2.39-0.32,4.71-0.68,7.03-1.08c0.48-0.04,0.96-0.08,1.4-0.2c2.71-0.4,5.39-0.88,8.02-1.4c2.67-0.48,5.35-1,7.94-1.56      c0.2-0.04,0.44-0.08,0.64-0.12c1.48-0.36,2.95-0.64,4.35-1c1.64-0.36,3.23-0.72,4.83-1.16h0.04c0.88-0.24,1.72-0.44,2.59-0.72      v32.53c0,44.9,36.8,81.71,81.75,81.71h446.17c44.86,0,81.67-36.8,81.67-81.71v-25.98c51.69,7.82,110.84,5.71,160.3,1.04      c-1.68-28.46-3.83-56.72-6.43-84.7c-2.28-24.27-4.83-48.26-7.7-71.93c-45.1,1.44-98.91,1.68-146.17-2.43v-58.28      c0-44.98-36.8-81.67-81.67-81.67h-446.17c-26.46,0-50.09,12.73-65.1,32.37c-10.42,13.73-16.64,30.81-16.64,49.29v54.6      c-9.42,1.4-19.4,2.51-29.66,3.43c-38.88,3.51-82.38,4.07-121.94,3.35c-2.75,23.15-5.27,46.62-7.5,70.33      C1618.35,2433.36,1616.12,2462.7,1614.44,2492.19z"
   id="path176" />
			</g>
			<g
   id="g182">
				<path
   class="st4"
   d="M2310.6,2429.9c63.22,25.59,161.06,20.24,227.77,12.17c40.01-4.84,68.09-41.76,62.2-81.62h0      c-5.38-36.38-37.4-62.83-74.13-61.11c-62.39,2.92-155.98,4.29-215.24-8.85"
   id="path180" />
			</g>
			<g
   class="st2"
   id="g186">
				<path
   class="st3"
   d="M2310.59,2429.89c63.23,25.59,161.06,20.24,227.75,12.17c40.03-4.83,68.09-41.75,62.23-81.63      c-1.36-9.22-4.47-17.84-8.9-25.47c-10.86,18.76-30.06,32.41-53.33,35.2c-66.58,8.06-164.21,13.41-227.43-12.05L2310.59,2429.89z      "
   id="path184" />
			</g>
			<g
   id="g190">
				<path
   class="st3"
   d="M2436.25,2463.99c-47.1,0-94.51-5.02-131.39-19.95l0,0c-44.07-17.84-45.36-88.03-32.35-129.85      c12.59-40.47,33.55-40.48,41.98-38.62c56.61,12.56,146.12,11.56,211.23,8.51c44.55-2.12,83.38,29.77,89.94,74.12      c3.46,23.42-2.53,46.68-16.89,65.49c-14.33,18.78-35.13,30.68-58.57,33.52C2509.1,2460.97,2472.77,2463.99,2436.25,2463.99z       M2316.32,2415.75c59.42,24.06,152.56,19.35,220.21,11.16c15.2-1.84,28.68-9.56,37.97-21.73c9.32-12.21,13.21-27.31,10.97-42.51      c-4.26-28.77-29.35-49.41-58.33-48.1c-66.16,3.11-157.15,4.07-217.09-8.73c-6.04,6.06-16.51,35.34-13.68,68.45      C2297.26,2384.69,2300.99,2409.55,2316.32,2415.75L2316.32,2415.75z"
   id="path188" />
			</g>
			<g
   id="g194">
				<path
   class="st4"
   d="M1599.27,2442.06c31.29,3.79,69.49,6.99,107.73,6.63c2.63,0,5.23-0.04,7.86-0.12      c2.75-0.04,5.55-0.12,8.3-0.24c1.88-0.04,3.71-0.12,5.51-0.2c2.2-0.12,4.35-0.24,6.51-0.36c2.75-0.16,5.51-0.36,8.22-0.56h0.2      c2.71-0.2,5.47-0.44,8.18-0.72c1.8-0.16,3.59-0.36,5.35-0.56c1.52-0.12,3.03-0.32,4.51-0.48c2.36-0.28,4.71-0.6,6.99-0.92      c2.2-0.32,4.35-0.64,6.47-1c0.44-0.04,0.88-0.08,1.28-0.2c2.51-0.36,4.99-0.8,7.42-1.28c2.47-0.44,4.91-0.92,7.3-1.44      c0.2-0.04,0.4-0.08,0.6-0.12c1.36-0.32,2.71-0.6,4.03-0.92c1.48-0.32,2.95-0.68,4.43-1.08h0.04c4.51-1.12,8.94-2.39,13.25-3.75      c2.32-0.72,4.63-1.52,6.91-2.32c2.27-0.8,4.51-1.68,6.67-2.55l-0.28-66.94l-0.32-72.49c-15.17,3.39-32.61,5.79-51.17,7.46      c-53.96,4.91-117.63,3.55-164.05,1.4c-1.12-0.04-2.24-0.08-3.39-0.08c-35.28,0-65.54,25.94-70.73,61.19      C1531.17,2400.31,1559.27,2437.23,1599.27,2442.06z"
   id="path192" />
			</g>
			<g
   class="st2"
   id="g198">
				<path
   class="st3"
   d="M1599.27,2442.06c31.29,3.79,69.49,6.99,107.73,6.63c2.63,0,5.23-0.04,7.86-0.12      c2.75-0.04,5.55-0.12,8.3-0.24c1.88-0.04,3.71-0.12,5.51-0.2c2.2-0.12,4.35-0.24,6.51-0.36c2.75-0.16,5.51-0.36,8.22-0.56h0.2      c2.71-0.2,5.47-0.44,8.18-0.72c1.8-0.16,3.59-0.36,5.35-0.56c1.52-0.12,3.03-0.32,4.51-0.48c2.35-0.28,4.71-0.6,6.99-0.92      c2.2-0.32,4.35-0.64,6.47-1c0.44-0.04,0.88-0.08,1.28-0.2c2.51-0.36,4.99-0.8,7.42-1.28c2.47-0.44,4.91-0.92,7.3-1.44      c0.2-0.04,0.4-0.08,0.6-0.12c1.36-0.32,2.71-0.6,4.03-0.92c1.48-0.32,2.95-0.68,4.43-1.08h0.04c4.51-1.12,8.94-2.4,13.25-3.75      c2.32-0.72,4.63-1.52,6.91-2.32c2.28-0.8,4.51-1.68,6.67-2.55l-0.28-63.9c-2.08,0.84-4.19,1.68-6.39,2.43      c-2.28,0.8-4.59,1.6-6.91,2.31c-4.31,1.36-8.74,2.63-13.25,3.75h-0.04c-1.48,0.4-2.95,0.76-4.43,1.08      c-1.32,0.32-2.67,0.6-4.03,0.92l-0.6,0.12c-2.4,0.52-4.83,1-7.3,1.44c-2.43,0.48-4.91,0.92-7.42,1.28      c-0.4,0.12-0.84,0.16-1.28,0.2c-2.12,0.36-4.27,0.68-6.47,1c-2.28,0.32-4.63,0.64-6.99,0.92c-1.48,0.16-2.99,0.36-4.51,0.48      c-1.76,0.2-3.55,0.4-5.35,0.56c-2.71,0.28-5.47,0.52-8.18,0.72h-0.2c-2.71,0.2-5.47,0.4-8.22,0.56      c-2.16,0.12-4.31,0.24-6.51,0.36c-1.8,0.08-3.63,0.16-5.51,0.2c-2.75,0.12-5.55,0.2-8.3,0.24c-2.63,0.08-5.23,0.12-7.86,0.12      c-38.24,0.36-76.44-2.83-107.73-6.63c-24.83-2.99-45.06-18.36-55.44-39.12c-3.31,6.63-5.63,13.85-6.75,21.51      C1531.18,2400.31,1559.28,2437.23,1599.27,2442.06z"
   id="path196" />
			</g>
			<g
   id="g202">
				<path
   class="st3"
   d="M1701.37,2463.99c-36.51,0-72.83-3.02-103.94-6.78c-23.44-2.83-44.24-14.74-58.57-33.51      c-14.36-18.81-20.36-42.07-16.89-65.49c6.55-44.35,45.32-76.25,89.94-74.12c65.11,3.05,154.61,4.05,211.23-8.51      c8.43-1.86,29.39-1.86,41.98,38.62c13.01,41.82,11.71,112-32.36,129.85l0,0C1795.88,2458.97,1748.47,2463.99,1701.37,2463.99z       M1607.79,2314.51c-27.84,0-51.51,20.28-55.63,48.16c-2.25,15.21,1.65,30.31,10.97,42.51c9.29,12.18,22.77,19.89,37.97,21.73      c67.66,8.19,160.78,12.9,220.21-11.16l5.73,14.14l-5.73-14.14c15.34-6.21,19.07-31.07,19.96-41.47      c2.83-33.1-7.64-62.38-13.68-68.44c-59.95,12.79-150.93,11.83-217.09,8.73C1609.58,2314.53,1608.68,2314.51,1607.79,2314.51z"
   id="path200" />
			</g>
			<g
   id="g206">
				<path
   class="st4"
   d="M1802.59,2244.4v223.43c0,41.46,33.93,75.39,75.39,75.39h411.48c41.4,0,75.33-33.93,75.33-75.39V2244.4      c0-41.46-33.93-75.33-75.33-75.33h-411.48c-24.4,0-46.19,11.76-60.01,29.86C1808.33,2211.58,1802.59,2227.35,1802.59,2244.4z"
   id="path204" />
			</g>
			<g
   class="st7"
   id="g210">
				<path
   class="st4"
   d="M1802.6,2244.4v223.44c0,41.43,33.93,75.36,75.4,75.36h411.48c41.39,0,75.32-33.93,75.32-75.36V2244.4      c0-41.47-33.93-75.32-75.32-75.32H1878c-24.43,0-46.22,11.73-60.03,29.86C1808.35,2211.59,1802.6,2227.36,1802.6,2244.4z"
   id="path208" />
			</g>
			<g
   class="st2"
   id="g214">
				<path
   class="st3"
   d="M1802.6,2347.98v119.86c0,41.43,33.93,75.36,75.4,75.36h411.48c41.39,0,75.32-33.93,75.32-75.36v-171.07      c-80.59,32.05-42.48,173.53-201.58,164.19c-129.08-7.58-148.35-111.62-148.35-111.62h-153.59c0,0,0.42,67.05-24.64,67.49      C1817.03,2417.15,1808.66,2387.26,1802.6,2347.98z"
   id="path212" />
			</g>
			<g
   id="g218">
				<path
   class="st4"
   d="M2391.24,2128.71"
   id="path216" />
			</g>
			<g
   id="g222">
				<path
   class="st3"
   d="M2289.45,2558.46h-411.49c-49.96,0-90.61-40.64-90.61-90.61V2244.4c0-49.96,40.64-90.61,90.61-90.61h411.49      c49.96,0,90.61,40.64,90.61,90.61v223.46C2380.05,2517.82,2339.41,2558.46,2289.45,2558.46z M1877.95,2184.31      c-33.13,0-60.09,26.96-60.09,60.09v223.46c0,33.13,26.95,60.09,60.09,60.09h411.49c33.13,0,60.09-26.96,60.09-60.09V2244.4      c0-33.13-26.95-60.09-60.09-60.09H1877.95z"
   id="path220" />
			</g>
			<g
   id="g226">
				
					<ellipse
   transform="matrix(0.7071 -0.7071 0.7071 0.7071 -1098.4282 2060.4146)"
   class="st8"
   cx="1937.93"
   cy="2356.13"
   rx="64.98"
   ry="64.98"
   id="ellipse224" />
			</g>
			<g
   id="g230">
				<path
   class="st4"
   d="M1872.94,2356.15c0,3.53,0.27,6.98,0.84,10.35c4.95-30.98,31.79-54.64,64.15-54.64      c32.36,0,59.2,23.66,64.15,54.64c0.58-3.37,0.84-6.83,0.84-10.35c0-35.89-29.1-64.99-64.99-64.99      C1902.04,2291.15,1872.94,2320.26,1872.94,2356.15z"
   id="path228" />
			</g>
			<g
   class="st2"
   id="g234">
				<path
   class="st3"
   d="M1872.97,2356.11c0,35.88,29.09,64.97,64.97,64.97c35.88,0,64.97-29.08,64.97-64.97      c0-8.3-1.56-16.21-4.46-23.51c-9.36,24.24-32.93,41.4-60.51,41.4c-27.58,0-51.15-17.16-60.51-41.4      C1874.53,2339.9,1872.97,2347.81,1872.97,2356.11z"
   id="path232" />
			</g>
			<g
   id="g238">
				<path
   class="st3"
   d="M1937.92,2432.55c-42.14,0-76.43-34.28-76.43-76.42c0-42.14,34.29-76.43,76.43-76.43      s76.43,34.28,76.43,76.43C2014.35,2398.27,1980.06,2432.55,1937.92,2432.55z M1937.92,2302.59c-29.52,0-53.54,24.02-53.54,53.54      s24.01,53.53,53.54,53.53s53.54-24.01,53.54-53.53S1967.45,2302.59,1937.92,2302.59z"
   id="path236" />
			</g>
			<g
   id="g242">
				<path
   class="st3"
   d="M2122.07,2558.46c-8.43,0-15.26-6.83-15.26-15.26v-129.72c0-23.31,11.12-45.6,29.74-59.61l34.97-26.33      c11.01-8.28,17.58-21.46,17.58-35.23v-123.26c0-8.43,6.83-15.26,15.26-15.26s15.26,6.83,15.26,15.26v123.26      c0,23.31-11.12,45.59-29.74,59.61l-34.97,26.33c-11.01,8.28-17.58,21.46-17.58,35.23v129.72      C2137.33,2551.63,2130.5,2558.46,2122.07,2558.46z"
   id="path240" />
			</g>
			<g
   id="g320">
				<g
   id="g246">
					<path
   class="st4"
   d="M2622.82,1873.42c36.01,149.46,186.79,135.53,228.3,125.43c86.56-21.08,116.26-102.66,116.26-102.66       l-69.82-92.28l-31.04-49.93l-37.08-11.15c-29.14-53.11-91.21-113.34-126.85-92.09       C2702.59,1650.74,2591.77,1744.59,2622.82,1873.42z"
   id="path244" />
				</g>
				<g
   class="st2"
   id="g250">
					<path
   class="st3"
   d="M2980.25,1847.94c0,46.57-61,88.82-192.31,73.51c-46.25-5.39-84.32-37.75-84.32-84.32       s37.75-84.32,84.32-84.32C2834.5,1752.81,2980.25,1801.37,2980.25,1847.94z"
   id="path248" />
				</g>
				<g
   id="g254">
					<path
   class="st4"
   d="M2975.61,1697.24c-34.48,34.6-64.66,60.11-64.66,60.11l-96.76,99.01l-65.3-159.46       c0,0-0.38-32.18,2.13-74.78c4.89-84.34,20.96-209.45,73.08-206.22c93.74,5.82,31.71,252.68,31.71,252.68       s149.64-199.5,209.58-142.84C3100.47,1558.91,3032.24,1640.36,2975.61,1697.24z"
   id="path252" />
				</g>
				<g
   class="st2"
   id="g258">
					<path
   class="st3"
   d="M2975.61,1697.24c-34.48,34.6-64.66,60.11-64.66,60.11l-96.76,99.01l-65.3-159.46       c0,0-0.38-32.18,2.13-74.78c25.12,19.85,71.99,55.9,88.38,77.38C2867.64,1736.48,2937.78,1689.93,2975.61,1697.24z"
   id="path256" />
				</g>
				<g
   id="g262">
					<path
   class="st3"
   d="M2814.19,1871.64c-0.97,0-1.95-0.09-2.92-0.28c-5.04-0.98-9.25-4.44-11.2-9.19l-65.29-159.49       c-0.73-1.78-1.11-3.68-1.14-5.61c-0.26-23.29-0.95-229.13,54.95-282.26c10.59-10.06,23.26-14.92,36.46-14.12       c18.26,1.14,33.7,9.66,44.66,24.64c29.94,40.95,22.94,126.68,13.29,185.96c40.02-45.52,102.16-106.52,150.86-110.66       c16.25-1.39,30.83,3.48,42.03,14.07c9.79,9.26,14.75,21.83,14.35,36.36c-2.05,73.65-149.28,200.86-168.87,217.47l-96.26,98.53       C2822.21,1870.01,2818.26,1871.64,2814.19,1871.64z M2764.14,1693.82l55.38,135.28l80.53-82.42c0.34-0.35,0.69-0.68,1.06-0.99       c60.65-51.28,157.35-149.7,158.62-195.49c0.21-7.6-2.46-11.12-4.8-13.34c-4.9-4.64-10.78-6.49-18.47-5.84       c-51.08,4.34-138.91,107.4-168.44,146.75c-4.37,5.82-12.21,7.73-18.77,4.61c-6.56-3.13-10-10.44-8.23-17.49       c11.81-47.03,35.55-178.53,4.07-221.57c-5.66-7.74-12.62-11.61-21.91-12.19c-2.99-0.2-7.68,0.21-13.54,5.78       C2770.99,1473.62,2763.72,1631.99,2764.14,1693.82z"
   id="path260" />
				</g>
				<g
   id="g266">
					<path
   class="st4"
   d="M2985.09,1878.93c-22.96,37.32-120.43,54.75-156.61,26.7c-30.78-23.89-0.04-54.33,8.71-62.07       c1.36-1.23,2.21-1.87,2.21-1.87s-37.45-11.48-44-43.02c-0.43-2.04-0.72-4.17-0.85-6.42c-2.3-36.39,94.88-67.8,139.01-60.71       c32.99,5.31,45.57,18.75,48.67,33.12c3.32,15.3-4.12,31.67-9.1,40.43c-2.3,4-4.04,6.38-4.04,6.38       S3003.5,1849.05,2985.09,1878.93z"
   id="path264" />
				</g>
				<g
   class="st2"
   id="g270">
					<path
   class="st3"
   d="M2973.15,1805.09c-26.06,13.35-78.3,36.05-135.95,38.47c1.36-1.23,2.21-1.87,2.21-1.87       s-37.45-11.48-44-43.02c34.56,7.57,130.04,21.98,186.84-34.01C2985.56,1779.97,2978.12,1796.33,2973.15,1805.09z"
   id="path268" />
				</g>
				<g
   class="st2"
   id="g274">
					<path
   class="st3"
   d="M2985.09,1878.93c-22.96,37.32-120.43,54.75-156.61,26.7c-15.13-11.73-15.39-25.04-10.71-36.47       c1.66,1.83,3.61,3.66,5.91,5.44c36.13,28.06,133.61,10.63,156.57-26.65c2.38-3.87,3.91-7.86,4.68-11.9       C2990.66,1848.83,2993.81,1864.73,2985.09,1878.93z"
   id="path272" />
				</g>
				<g
   id="g278">
					<path
   class="st3"
   d="M2881.46,1934.78c-25.75,0-47.88-5.89-62.31-17.08c-15.93-12.35-19.29-26.36-19.31-35.93       c-0.03-13.84,6.75-26.27,13.93-35.53c-14.99-9.39-32.7-26.07-34.42-52.99c-0.56-8.83,2.01-22.29,17.45-36.33       c32.55-29.57,102.8-46.29,139.2-40.45l0,0c30.92,4.98,50.65,17.37,58.65,36.84c8.85,21.56-0.04,44.31-6.99,57.12       c10.94,15.42,28.33,47.44,10.42,76.52c-12.89,20.92-43.62,37.6-82.22,44.6C2903.96,1933.72,2892.38,1934.78,2881.46,1934.78z        M2919.34,1745.76c-31.17,0-80.36,14.06-102.02,33.75c-4.97,4.51-7.71,8.81-7.51,11.79c1.61,25.26,33.81,35.72,34.14,35.82       c5.4,1.71,9.44,6.27,10.45,11.85c1.01,5.57-1.12,11.25-5.58,14.74c-6.02,4.77-18.51,17.94-18.45,28.02       c0.01,2.6,0.81,6.66,7.5,11.84c13.2,10.24,42.36,13.44,72.57,7.95c28.85-5.24,53.64-17.53,61.68-30.58       c11.91-19.35-14.02-48.9-14.29-49.19c-4.86-5.37-5.31-13.45-1.03-19.29c4.13-5.73,14.83-25.03,9.61-37.61       c-4.62-11.14-21.71-16.08-35.24-18.25C2927.65,1746.03,2923.67,1745.76,2919.34,1745.76z"
   id="path276" />
				</g>
				<g
   id="g282">
					<path
   class="st3"
   d="M2851.64,1857.31c-4.32,0-8.69-0.12-13.12-0.38c-8.41-0.49-14.83-7.71-14.34-16.13       c0.5-8.42,7.72-14.93,16.13-14.34c65.57,3.84,120.52-27.81,121.06-28.13c7.28-4.25,16.62-1.83,20.88,5.43       c4.26,7.26,1.86,16.59-5.39,20.87C2974.46,1826.03,2920.62,1857.31,2851.64,1857.31z"
   id="path280" />
				</g>
				<g
   id="g286">
					<path
   class="st4"
   d="M2702.6,1650.75c47.31-28.21,141.09,87.02,142.81,138.74c1.32,39.48-45.44,72.42-101.32,22.04       C2687.47,1760.5,2628.3,1695.06,2702.6,1650.75z"
   id="path284" />
				</g>
				<g
   id="g290">
					<path
   class="st4"
   d="M2967.39,1896.21c0,0-29.72,81.55-116.25,102.63c-41.52,10.11-192.3,24.04-228.33-125.43       c-31.04-128.82,79.78-222.65,79.78-222.65c47.31-28.21,141.09,87.02,142.81,138.74c1.32,39.48-57.36,61.87-106.5-7.6       c0,0,25.89,63.1-29.39,106.15l130.25,75.02l98.5-19.23L2967.39,1896.21z"
   id="path288" />
				</g>
				<g
   id="g294">
					<path
   class="st4"
   d="M2735.26,1857.8l-2.59-1.49c1.96-1.53,3.74-3.02,5.44-4.59       C2737.25,1853.72,2736.32,1855.76,2735.26,1857.8z"
   id="path292" />
				</g>
				<g
   class="st2"
   id="g298">
					<path
   class="st3"
   d="M2740.95,1770.19c-6.93-25.51,66.33,39.43,104.45,22.74c-1.83,32.05-44.04,50.67-86.17,12.29       C2756.72,1784.68,2740.95,1770.19,2740.95,1770.19z"
   id="path296" />
				</g>
				<g
   class="st2"
   id="g302">
					<path
   class="st3"
   d="M2921.67,1947.08l16.62-3.23c-18.36,21.85-46.51,45.1-87.15,55.01       c-41.53,10.12-192.32,24.02-228.33-125.45c-21.13-87.66,23.47-159.16,54.12-195.85c-24.95,39.79-47.1,97.26-30.99,164.13       c36.01,149.47,186.79,135.57,228.33,125.45C2892.5,1962.68,2908.23,1955.58,2921.67,1947.08z"
   id="path300" />
				</g>
				<g
   id="g306">
					<path
   class="st4"
   d="M2967.36,1896.28c-0.3,0.81-2.68,7.06-7.65,16.2l-2.55,0.51L2967.36,1896.28z"
   id="path304" />
				</g>
				<g
   id="g310">
					<path
   class="st4"
   d="M2961.41,1912.13c-1.36,1.62-2.76,3.27-4.25,4.89c0.89-1.57,1.74-3.1,2.55-4.55L2961.41,1912.13z"
   id="path308" />
				</g>
				<g
   id="g314">
					<path
   class="st3"
   d="M2683.33,1977.02c-8.56-1.66-16.32-5.34-23.41-9.99c-7.09-4.66-13.48-10.41-18.89-16.92       c-11.1-12.87-19.3-28-24.85-43.69c-10.64-31.21-16.3-64.53-13.18-97.66c2.9-33.07,13.81-64.82,29.48-93.23       c7.84-14.23,16.85-27.73,26.83-40.43c4.98-6.36,10.2-12.52,15.69-18.48c2.76-2.97,5.54-5.92,8.45-8.79       c2.97-2.95,5.7-5.58,9.29-8.71c0.56-0.48,1.15-0.91,1.76-1.29l0.29-0.17c9.83-5.93,21.8-7.37,31.65-5.98       c10.02,1.34,18.63,4.75,26.44,8.7c7.84,3.96,14.78,8.71,21.36,13.71c6.6,5,12.7,10.38,18.49,16       c11.63,11.2,21.95,23.38,31.43,36.22c9.36,12.93,17.87,26.51,24.86,41.39c3.45,7.49,6.56,15.27,8.84,23.81       c1.12,4.28,2.07,8.73,2.49,13.63l0.29,3.67c0,1.29-0.09,2.64-0.15,3.96c-0.25,2.66-0.12,5.32-0.83,7.95       c-1.76,10.7-7.91,20.72-15.98,27.82c-8.11,7.08-18.29,11.68-28.37,12.76c-2.54,0.56-5.01,0.52-7.5,0.53       c-2.47-0.06-5.04,0.19-7.41-0.23c-4.76-0.73-9.67-1.29-14.02-2.94c-2.23-0.72-4.49-1.41-6.67-2.21l-6.16-2.95       c-4.24-1.84-7.86-4.35-11.55-6.8c-14.57-10-25.81-22.73-35.56-35.98l26.57-14.6c1.35,3.5,2.05,5.89,2.85,8.75       c0.77,2.75,1.41,5.5,1.94,8.25c1.14,5.51,1.77,11.1,2.18,16.72c0.56,11.26-0.15,22.77-2.53,34.2       c-0.97,5.77-3.21,11.29-5.48,16.68c-1.37,2.6-2.91,5.12-4.37,7.66c-1.46,2.55-3.54,4.66-5.32,6.95       c-7.48,8.93-17.84,15.1-29.65,16.74c-3.19,0.44-6.13-1.78-6.57-4.97c-0.1-0.73-0.06-1.44,0.1-2.12l0.22-0.94       c1.37-5.79,3.66-9.92,5.37-14.25c1.69-4.31,3.81-7.93,5.39-11.76c3.67-7.31,6.74-14.43,9.3-22.06       c2.62-7.59,3.71-15.94,3.09-24.33c-0.32-4.19-0.78-8.4-1.64-12.54c-0.4-2.08-0.87-4.12-1.43-6.12c-0.5-1.88-1.27-4.2-1.67-5.3       l-0.08-0.22c-2.93-7.92,1.11-16.72,9.03-19.66c6.54-2.42,13.69-0.08,17.63,5.27c8.16,11.08,17.34,21.22,27.78,28.36       c10.31,7.03,22.09,11.17,31.94,9.62c5.03-0.41,9.18-2.69,12.41-5.42c3.12-2.85,5.59-6.38,6.2-10.73c0.41-1,0.12-2.22,0.3-3.31       l0.15-1.7l-0.19-1.98c-0.21-2.64-0.81-5.63-1.62-8.66c-1.61-6.08-4.09-12.42-6.98-18.66c-11.95-25.04-29.66-48.88-49.84-68.56       c-10.1-9.79-21.19-18.61-32.56-24.49c-5.65-2.89-11.38-4.95-16.39-5.59c-5.07-0.63-8.9,0.05-12.16,1.91l2.05-1.46       c-2.2,1.91-5.03,4.59-7.5,7.06c-2.56,2.52-5.05,5.16-7.52,7.82c-4.92,5.34-9.64,10.92-14.13,16.65       c-9.01,11.46-17.11,23.62-24.1,36.3c-13.97,25.35-23.35,53-25.82,81.26c-2.59,28.13,1.59,57.08,12.98,83.19       c5.54,12.96,11.96,25.17,19.31,36.9c7.48,11.74,15.44,22.9,23.5,37.11l0.05,0.09c1.52,2.68,0.58,6.08-2.1,7.6       C2685.94,1977.08,2684.59,1977.26,2683.33,1977.02z"
   id="path312" />
				</g>
				<g
   id="g318">
					<path
   class="st3"
   d="M2981.73,1901.43c-1.56,4.2-2.82,7.33-4.47,10.73c-1.58,3.33-3.25,6.56-5.05,9.72       c-1.77,3.18-3.75,6.21-5.63,9.31c-2.02,3.01-4.14,5.94-6.23,8.89l-6.72,8.52l-7.3,8.03c-5.08,5.15-10.21,10.26-15.99,14.66       c-5.5,4.69-11.59,8.66-17.6,12.62c-6.4,3.41-12.48,7.22-19.2,9.85c-12.89,6.18-27.6,8.73-42.11,6.32       c-0.75-0.12-1.26-0.83-1.14-1.59c0.06-0.33,0.22-0.61,0.46-0.82l0.08-0.07c11.24-9.7,22.23-15.44,32.71-22.55       c5.43-3.12,10.16-7.34,15.13-11.01c4.54-4.31,9.44-8.07,13.59-12.72c2.16-2.22,4.35-4.39,6.29-6.82c2-2.37,4.15-4.58,6.02-7.04       l5.62-7.36l5.33-7.58c3.32-5.21,6.64-10.41,9.58-15.8c1.45-2.71,2.97-5.36,4.28-8.08c1.32-2.6,2.78-5.61,3.66-7.65l0.41-0.94       c3.36-7.72,12.34-11.25,20.06-7.89C2980.97,1885.4,2984.5,1893.91,2981.73,1901.43z"
   id="path316" />
				</g>
			</g>
			<g
   id="g324">
				<path
   class="st3"
   d="M2730.36,2279.68c-28.27,0-124.31-7.54-155.16-107.23c-44.38-143.46,20.73-249.18,23.53-253.61      c3.37-5.35,10.44-6.95,15.78-3.58c5.34,3.37,6.95,10.43,3.58,15.77c-0.75,1.21-62.14,101.76-21.03,234.65      c30.62,98.96,134.78,91.34,139.19,90.96c6.34-0.49,11.84,4.13,12.38,10.42c0.54,6.29-4.1,11.83-10.39,12.38      C2738.07,2279.46,2735.21,2279.68,2730.36,2279.68z"
   id="path322" />
			</g>
			<g
   id="g328">
				<path
   class="st3"
   d="M1633.18,2311.68c-1,0-2.01-0.13-3.02-0.41c-116.28-31.77-145.63-126.09-146.82-130.09      c-1.81-6.06,1.64-12.43,7.7-14.24c6.05-1.8,12.42,1.63,14.23,7.68c1.1,3.63,27.39,86.28,130.93,114.57      c6.09,1.67,9.69,7.96,8.02,14.06C1642.82,2308.33,1638.21,2311.68,1633.18,2311.68z"
   id="path326" />
			</g>
		</g>
		<g
   class="st0"
   id="g368">
			<g
   class="st9"
   id="g342">
				<g
   id="g334">
					<path
   class="st10"
   d="M1123.9,1490.96c-3.11,0-6.24-0.8-9.07-2.46l-112.92-65.93c-6.38-3.72-13.61-5.69-20.91-5.69       c-3.54,0-7.07,0.46-10.47,1.38c-21.95,5.89-44.67,8.98-67.53,9.17l-2.32,0.01c-146.14,0-266.91-118.82-269.22-264.87       c-1.15-72.77,26.31-141.39,77.31-193.21c51.02-51.83,119.17-80.38,191.88-80.38c1.77,0,3.53,0.01,5.3,0.05       c146.67,2.82,265.06,124.53,263.92,271.31c-0.51,65.91-25.13,129.17-69.31,178.11c-12.48,13.82-14.48,34.04-4.99,50.3       l43.86,75.13c4.12,7.06,2.96,16.02-2.82,21.8C1133.16,1489.16,1128.55,1490.96,1123.9,1490.96z"
   id="path332" />
				</g>
				<g
   id="g340">
					<g
   id="g338">
						<path
   class="st3"
   d="M900.66,906.98c1.65,0,3.3,0.02,4.96,0.05c136.85,2.63,247.34,116.31,246.27,253.18        c-0.5,63.92-24.9,122.13-64.68,166.19c-17.73,19.64-20.51,48.58-7.17,71.43l43.86,75.13l-112.92-65.93        c-9.17-5.36-19.54-8.14-29.99-8.14c-5.07,0-10.16,0.66-15.14,1.99c-20.12,5.4-41.24,8.37-63.01,8.56        c-0.72,0.01-1.45,0.01-2.17,0.01c-136.32,0-249.07-110.61-251.23-247.16C647.23,1021.68,760.55,906.99,900.66,906.98         M900.66,871C900.65,871,900.65,871,900.66,871c-77.58,0-150.28,30.46-204.71,85.76c-54.42,55.29-83.71,128.48-82.48,206.11        c2.47,155.82,131.31,282.59,287.22,282.59l2.48-0.01c24.38-0.21,48.61-3.5,72.03-9.79c1.89-0.51,3.84-0.76,5.81-0.76        c4.12,0,8.21,1.12,11.84,3.23l112.92,65.93c5.65,3.3,11.91,4.91,18.13,4.91c9.31,0,18.53-3.61,25.46-10.54        c11.56-11.56,13.88-29.47,5.63-43.6l-43.86-75.13c-5.52-9.47-4.4-21.19,2.8-29.17c47.14-52.22,73.4-119.7,73.96-190.03        c1.22-156.59-125.1-286.43-281.57-289.45C904.42,871.01,902.54,871,900.66,871L900.66,871z"
   id="path336" />
					</g>
				</g>
			</g>
			<g
   class="st11"
   id="g348">
				<g
   id="g346">
					<path
   class="st4"
   d="M918.81,926.82c-142.38-2.74-258.41,112.99-256.16,255.26c0.72,45.38,13.71,87.85,35.66,124.39       c-29.9-40.59-48-90.34-48.85-144.18c-2.25-142.27,113.78-258.01,256.16-255.26c89.27,1.72,167.3,50.71,210.49,122.55       C1071.22,968.67,999.62,928.38,918.81,926.82z"
   id="path344" />
				</g>
			</g>
			<g
   class="st12"
   id="g352">
				<path
   class="st13"
   d="M863.28,1356.68c21.78-0.19,42.89-3.16,63.02-8.56c2.13-0.57,5.33-0.97,9.26-1.23      c37.43-2.47,70.9-22.58,93.72-52.35c5.62-7.33,12.03-13.89,18.36-20.9c39.78-44.06,64.18-102.27,64.68-166.19      c0.35-45.14-11.49-87.72-32.35-124.66c44.89,45.9,72.46,108.74,71.92,177.42c-0.49,63.58-24.63,121.5-64.03,165.48      c-17.82,19.89-21.53,48.66-8.06,71.72l44.12,75.56l-112.92-65.92c-13.73-8.01-30.07-10.17-45.43-6.07      c-20.03,5.35-41.04,8.29-62.72,8.48c-94.5,0.81-177.92-51.56-221.46-129.05C727.66,1327.87,792.33,1357.29,863.28,1356.68z"
   id="path350" />
			</g>
			<g
   class="st9"
   id="g356">
				<path
   class="st4"
   d="M992.27,1074.26L992.27,1074.26c-25.67-25.67-67.28-21.07-92.95,4.6l-3.99,3.99l-3.99-3.99      c-25.67-25.67-67.28-30.27-92.95-4.6l0,0c-25.67,25.67-25.67,67.28,0,92.95l3.99,3.99l80.7,80.7c6.77,6.77,17.74,6.77,24.5,0      l80.7-80.7l3.99-3.99C1017.94,1141.54,1017.94,1099.92,992.27,1074.26z"
   id="path354" />
			</g>
			<g
   class="st11"
   id="g360">
				<path
   class="st14"
   d="M983.87,1109.61c-7.9-10.88-23.23-11.39-27.86-8.03c-4.63,3.36,3.19,9.33,11.09,20.21      c7.9,10.88,12.89,22.55,17.52,19.18S991.77,1120.49,983.87,1109.61z"
   id="path358" />
			</g>
			<g
   class="st11"
   id="g366">
				<g
   id="g364">
					<path
   class="st14"
   d="M934.81,1087.19c-0.42,3.22,1.79,6.18,4.71,7.35c2.94,1.11,6.57,0.42,8.43-2.24       c1.86-2.63,0.2-6.98-4.19-8.69C939.38,1081.9,935.21,1083.99,934.81,1087.19z"
   id="path362" />
				</g>
			</g>
		</g>
	</g>
</g>
</svg>
